<?xml version="1.0" encoding="UTF-8"?>
<svg enable-background="new 0 0 564.834 565.177" viewBox="0 0 564.834 565.177" xmlns="http://www.w3.org/2000/svg">
 <path d="m47.109,408.284 66.352-37.447-69.755,30.637 67.408-35.509-70.613,28.603 68.407-33.542-71.411,26.546 69.349-31.546-72.149,24.467 70.233-29.524-72.827,22.367 71.058-27.478-73.444,20.247 71.823-25.408-73.998,18.112 72.528-23.316-74.492,15.961 73.172-21.206-74.922,13.797 73.755-19.08-75.29,11.622 74.277-16.934-75.595,9.435 74.736-14.775-75.836,7.243 75.131-12.606-76.014,5.043 75.466-10.424-76.129,2.839 75.735-8.234-76.178.634 75.942-6.037-76.165-1.574 76.084-3.835-76.087-3.778 76.164-1.63-75.947-5.98 76.179.576-75.741-8.178 76.13,2.783-75.473-10.367 76.018,4.986-75.141-12.55 75.842,7.187-74.747-14.721 75.602,9.38-74.289-16.88 75.299,11.566-73.77-19.025 74.933,13.743-73.188-21.153 74.503,15.906-72.546-23.263 74.012,18.057-71.841-25.354 73.458,20.193-71.078-27.425 72.843,22.313-70.254-29.473 72.167,24.413-69.372-31.494 71.43,26.493-68.432-33.491 70.634,28.551-67.434-35.459 69.778,30.584-66.379-37.396 68.863,32.592-65.269-39.303 67.891,34.573-64.105-41.178 66.863,36.526-62.886-43.017 65.777,38.447-61.614-44.821 64.637,40.335-60.292-46.586 63.443,42.191-58.919-48.313 62.195,44.011-57.496-49.999 60.896,45.794-56.025-51.644 59.546,47.538-54.507-53.244 58.144,49.242-52.943-54.8 56.695,50.906-51.335-56.311 55.198,52.526-49.684-57.774 53.655,54.104-47.992-59.189 52.067,55.634-46.259-60.554 50.436,57.119-44.487-61.868 48.76,58.556-42.677-63.131 47.046,59.944-40.833-64.342 45.292,61.283-38.955-65.497 43.5,62.567-37.042-66.597 41.67,63.801-35.099-67.642 39.806,64.981-33.127-68.63 37.91,66.107-31.128-69.561 35.98,67.177-29.1-70.433 34.021,68.191-27.051-71.247 32.034,69.148-24.978-72 30.019,70.047-22.883-72.694 27.98,70.887-20.771-73.327 25.917,71.669-18.64-73.898 23.832,72.389-16.494-74.407 21.727,73.049-14.333-74.853 19.604,73.648-12.162-75.237 17.465,74.184-9.979-75.557 15.31,74.658-7.788-75.813 13.144,75.07-5.592-76.007 10.966,75.419-3.389-76.138 8.778,75.706-1.184-76.204 6.584,75.928 1.021-76.207 4.384,76.087 3.226-76.145 2.181,76.182 5.428-76.019-.025,76.213 7.625-75.83-2.229,76.18 9.817-75.577-4.436,76.084 12.002-75.262-6.635,75.923 14.172-74.882-8.828,75.7 16.334-74.442-11.016,75.413 18.483-73.937-13.194,75.062 20.614-73.371-15.36,74.649 22.729-72.742-17.514,74.172 24.822-72.054-19.652,73.634 26.898-71.305-21.775,73.034 28.949-70.497-23.879,72.373 30.979-69.627-25.963,71.65 32.979-68.701-28.026,70.867 34.955-67.716-30.066,70.026 36.898-66.676-32.078,69.127 38.813-65.58-34.067,68.169 40.696-64.429-36.026,67.155 42.543-63.224-37.953,66.082 44.354-61.963-39.848,64.954 46.127-60.653-41.711,63.774 47.863-59.292-43.541,62.538 49.563-57.879-45.332,61.251 51.213-56.421-47.084,59.913 52.824-54.915-48.799,58.525 54.392-53.362-50.472,57.087 55.914-51.764-52.104,55.601 57.389-50.122-53.691,54.068 58.816-48.44-55.232,52.491 60.191-46.716-56.728,50.869 61.517-44.953-58.176,49.205 62.793-43.152-59.576,47.499 64.018-41.315-60.928,45.753 65.186-39.443-62.225,43.969 66.299-37.539-63.471,42.149 67.357-35.603-64.662,40.292 68.36-33.637-65.803,38.403 69.305-31.643-66.889,36.481 70.191-29.623-67.914,34.529 71.02-27.577-68.885,32.547 71.787-25.509-69.799,30.538 72.496-23.419-70.652,28.504 73.143-21.309-71.448,26.446 73.729-19.182-72.184,24.365 74.252-17.039-72.857,22.264 74.715-14.881-73.471,20.145 75.113-12.71-74.023,18.008 75.451-10.53-74.514,15.857 75.723-8.34-74.941,13.692 75.933-6.143-75.306,11.516 76.078-3.942-75.608,9.329 76.162-1.736-75.847,7.136 76.179.471-76.019,4.937 76.133,2.675-76.131,2.733 76.023,4.88-76.179.526 75.851,7.08-76.162-1.679 75.615,9.273-76.082-3.885 75.315,11.46-75.938-6.086 74.951,13.635-75.728-8.283 74.525,15.802-75.459-10.475 74.039,17.954-75.125-12.655 73.487,20.09-74.725-14.825 72.875,22.211-74.268-16.984 72.202,24.311-73.743-19.127 71.467,26.392-73.158-21.255 70.674,28.452-72.514-23.365 69.822,30.486-71.806-25.455 68.908,32.496-71.039-27.525 67.941,34.477-70.214-29.57 66.914,36.433-69.329-31.592 65.833,38.354-68.385-33.587 64.693,40.246-67.385-35.554 63.504,42.102-66.328-37.491 62.258,43.924-65.215-39.395 60.961,45.707-64.049-41.267 59.613,47.454-62.826-43.104 58.213,49.161-61.551-44.907 56.766,50.827-60.227-46.671 55.272,52.449-58.852-48.395 53.731,54.028-57.426-50.08 52.145,55.561-55.952-51.72 50.514,57.047-54.432-53.32 48.844,58.487-52.867-54.874 47.129,59.877-51.256-56.382 45.379,61.217-49.604-57.842 43.586,62.505-47.908-59.256 41.76,63.743-46.174-60.619 39.899,64.925-44.401-61.931 38.002,66.053-42.59-63.19 36.075,67.127-40.743-64.398 34.118,68.143-38.864-65.551 32.133,69.103-36.949-66.649 30.117,70.005-35.006-67.692 28.08,70.848-33.031-68.676 26.018,71.63-31.03-69.604 23.932,72.355-29.002-70.475 21.828,73.018-26.949-71.286 19.707,73.62-24.877-72.036 17.568,74.16-22.781-72.727 15.414,74.638-20.668-73.355 13.25,75.052-18.537-73.924 11.072,75.405-16.39-74.429 8.884,75.694-14.228-74.873 6.691,75.919-12.056-75.253 4.49,76.081-9.873-75.57 2.287,76.179-7.682-75.826 .082,76.214-5.484-76.016-2.125,76.184-3.282-76.143-4.327,76.091-1.078-76.206-6.528,75.933 1.128-76.205-8.723,75.713 3.333-76.141-10.909,75.428 5.534-76.013-13.087,75.08 7.731-75.819-15.254,74.669 9.922-75.563-17.409,74.196 12.105-75.244-19.55,73.66 14.279-74.863-21.673,73.064 16.438-74.417-23.778,72.405 18.585-73.91-25.863,71.687 20.716-73.341-27.928,70.907 22.83-72.71-29.967,70.068 24.924-72.018-31.982,69.171 26.998-71.267-33.971,68.217 29.049-70.456-35.93,67.205 31.075-69.584-37.86,66.134 33.076-68.654-39.759,65.011 35.05-67.669-41.623,63.832 36.993-66.625-43.453,62.601 38.905-65.527-45.246,61.316 40.785-64.371-47.001,59.978 42.631-63.162-48.718,58.592 44.441-61.901-50.393,57.157 46.214-60.589-52.026,55.674 47.948-59.225-53.615,54.143 49.641-57.811-55.159,52.568 51.294-56.349-56.658,50.948 52.903-54.841-58.108,49.287 54.468-53.286-59.511,47.582 55.987-51.684-60.862,45.838 57.459-50.041-62.163,44.057 58.883-48.357-63.411,42.238 60.257-46.631-64.608,40.383 61.582-44.866-65.749,38.495 62.854-43.062-66.835,36.575 64.074-41.227-67.866,34.624 65.241-39.351-68.84,32.644z" fill="#ff7f00" fill-rule="evenodd"/>
 <path d="m192.73 330.2-162.96 78.772 160.77-83.162-166.58 70.801 164.6-75.293-169.8 62.668 168.04-67.25-172.63 54.389 171.09-59.051-175.05 45.981 173.74-50.711-177.07 37.466 175.99-42.255-178.67 28.864 177.82-33.699-179.86 20.195 179.24-25.065-180.62 11.478 180.24-16.372-180.96 2.734 180.82-7.642-180.88-6.015 180.98 1.107-180.38-14.751 180.72 9.854-179.46-23.453 180.03 18.577-178.12-32.099 178.92 27.257-176.36-40.671 177.4 35.873-174.19-49.148 175.46 44.405-171.61-57.509 173.11 52.835-168.64-65.738 170.35 61.14-165.26-73.812 167.2 69.302-161.51-81.713 163.66 77.303-157.37-89.423 159.74 85.122-152.87-96.925 155.44 92.744-148.01-104.2 150.78 100.15-142.8-111.23 145.77 107.32-137.27-118.01 140.41 114.24-131.41-124.5 134.73 120.89-125.24-130.71 128.74 127.26-118.78-136.61 122.44 133.34-112.05-142.19 115.86 139.1-105.05-147.44 109 144.54-97.806-152.35 101.9 149.64-90.335-156.9 94.553 154.39-82.652-161.08 86.986 158.78-74.777-164.88 79.218 162.8-66.727-168.31 71.263 166.43-58.52-171.34 63.141 169.69-50.177-173.96 54.873 172.54-41.718-176.19 46.477 174.99-33.161-178 37.972 177.03-24.526-179.39 29.378 178.66-15.834-180.37 20.716 179.87-7.105-180.92 12.005 180.66 1.64-181.05 3.267 181.03 10.382-180.76-5.48 180.98 19.1-180.05-14.215 180.5 27.773-178.92-22.914 179.6 36.381-177.36-31.561 178.29 44.903-175.4-40.133 176.55 53.322-173.03-48.615 174.41 61.617-170.25-56.98 171.85 69.765-167.07-65.213 168.9 77.752-163.5-73.293 165.55 85.557-159.55-81.201 161.81 93.162-155.23-88.922 157.7 100.55-150.55-96.434 153.22 107.7-145.51-103.72 148.38 114.6-140.14-110.76 143.19 121.24-134.43-117.55 137.67 127.59-128.42-124.06 131.83 133.64-122.1-130.28 125.68 139.38-115.5-136.2 119.24 144.8-108.63-141.8 112.51 149.88-101.5-147.07 105.53 154.6-94.137-151.99 98.296 158.96-86.555-156.56 90.834 162.96-78.77-160.77 83.161 166.57-70.802-164.59 75.294 169.8-62.669-168.04 67.25 172.63-54.388-171.09 59.05 175.05-45.98-173.74 50.711 177.07-37.466-175.99 42.254 178.67-28.864-177.82 33.699 179.86-20.194-179.24 25.065 180.62-11.478-180.24 16.372 180.96-2.734-180.82 7.641 180.88 6.015-180.98-1.107 180.38 14.752-180.72-9.854 179.46 23.452-180.03-18.577 178.12 32.1-178.92-27.257 176.36 40.671-177.4-35.873 174.19 49.147-175.46-44.405 171.61 57.51-173.11-52.835 168.64 65.737-170.36-61.139 165.26 73.812-167.2-69.302 161.51 81.712-163.66-77.302 157.37 89.424-159.74-85.124 152.87 96.926-155.44-92.743 148.01 104.2-150.78-100.15 142.8 111.23-145.76-107.32 137.26 118.01-140.41-114.24 131.41 124.5-134.73-120.89 125.24 130.71-128.74-127.26 118.78 136.61-122.44-133.34 112.05 142.19-115.86-139.1 105.05 147.44-109.01-144.54 97.807 152.35-101.9-149.64 90.334 156.9-94.552-154.39 82.652 161.08-86.986-158.78 74.775 164.88-79.217-162.8 66.727 168.31-71.262-166.44 58.52 171.34-63.143-169.68 50.178 173.96-54.873-172.54 41.719 176.19-46.477-174.99 33.16 178-37.971-177.03 24.526 179.39-29.379-178.66 15.834 180.37-20.715-179.87 7.106 180.92-12.006-180.66-1.641 181.06-3.267-181.03-10.381 180.76 5.48-180.98-19.1 180.05 14.213-180.5-27.772 178.92 22.914-179.6-36.38 177.37 31.561-178.29-44.904 175.4 40.134-176.55-53.322 173.02 48.614-174.41-61.616 170.25 56.98-171.85-69.765 167.07 65.212-168.9-77.752 163.5 73.293-165.55-85.557 159.55 81.202-161.81-93.162 155.23 88.921-157.7-100.55 150.55 96.434-153.22-107.7 145.51 103.72-148.38-114.6 140.14 110.76-143.19-121.24 134.43 117.55-137.67-127.59 128.42 124.06-131.83-133.64 122.1 130.28-125.68-139.38 115.5 136.2-119.23-144.8 108.62 141.8-112.51-149.87 101.5 147.07-105.53-154.6 94.137 151.99-98.295-158.97 86.554 156.56-90.834z" fill="#ff0" fill-rule="evenodd"/>
</svg>
